<svg xmlns="http://www.w3.org/2000/svg" xmlns:svg="http://www.w3.org/2000/svg" id="svg7384" width="16" height="16.009" version="1.1"><metadata id="metadata90"/><title id="title9167">Gnome Symbolic Icon Theme</title><g id="layer11" transform="translate(-163.0002,-508.99113)"><path id="path3601-2" d="m 168.40625,515 a 0.50219246,0.50219246 0 1 0 0.0937,1 l 6,0 a 0.50005,0.50005 0 1 0 0,-1 l -6,0 a 0.50005,0.50005 0 0 0 -0.0937,0 z" style="font-size:medium;font-style:normal;font-variant:normal;font-weight:400;font-stretch:normal;text-indent:0;text-align:start;text-decoration:none;line-height:normal;letter-spacing:normal;word-spacing:normal;text-transform:none;direction:ltr;block-progression:tb;writing-mode:lr-tb;text-anchor:start;baseline-shift:baseline;color:#000;fill:#bebebe;fill-opacity:1;stroke:none;stroke-width:1;marker:none;visibility:visible;display:inline;overflow:visible;enable-background:accumulate;font-family:Sans;-inkscape-font-specification:Sans"/><path id="path3601-2-3" d="m 168.40625,517 a 0.50219246,0.50219246 0 1 0 0.0937,1 l 5,0 a 0.50005,0.50005 0 1 0 0,-1 l -5,0 a 0.50005,0.50005 0 0 0 -0.0937,0 z" style="font-size:medium;font-style:normal;font-variant:normal;font-weight:400;font-stretch:normal;text-indent:0;text-align:start;text-decoration:none;line-height:normal;letter-spacing:normal;word-spacing:normal;text-transform:none;direction:ltr;block-progression:tb;writing-mode:lr-tb;text-anchor:start;baseline-shift:baseline;color:#000;fill:#bebebe;fill-opacity:1;stroke:none;stroke-width:1;marker:none;visibility:visible;display:inline;overflow:visible;enable-background:accumulate;font-family:Sans;-inkscape-font-specification:Sans"/><path id="path3601-2-3-2" d="m 168.40625,519 a 0.50219246,0.50219246 0 1 0 0.0937,1 l 6,0 a 0.50005,0.50005 0 1 0 0,-1 l -6,0 a 0.50005,0.50005 0 0 0 -0.0937,0 z" style="font-size:medium;font-style:normal;font-variant:normal;font-weight:400;font-stretch:normal;text-indent:0;text-align:start;text-decoration:none;line-height:normal;letter-spacing:normal;word-spacing:normal;text-transform:none;direction:ltr;block-progression:tb;writing-mode:lr-tb;text-anchor:start;baseline-shift:baseline;color:#000;fill:#bebebe;fill-opacity:1;stroke:none;stroke-width:1;marker:none;visibility:visible;display:inline;overflow:visible;enable-background:accumulate;font-family:Sans;-inkscape-font-specification:Sans"/><path id="path3601-2-3-3" d="m 168.40625,521 a 0.50219246,0.50219246 0 1 0 0.0937,1 l 3,0 a 0.50005,0.50005 0 1 0 0,-1 l -3,0 a 0.50005,0.50005 0 0 0 -0.0937,0 z" style="font-size:medium;font-style:normal;font-variant:normal;font-weight:400;font-stretch:normal;text-indent:0;text-align:start;text-decoration:none;line-height:normal;letter-spacing:normal;word-spacing:normal;text-transform:none;direction:ltr;block-progression:tb;writing-mode:lr-tb;text-anchor:start;baseline-shift:baseline;color:#000;fill:#bebebe;fill-opacity:1;stroke:none;stroke-width:1;marker:none;visibility:visible;display:inline;overflow:visible;enable-background:accumulate;font-family:Sans;-inkscape-font-specification:Sans"/><path id="rect10788" d="m 167.0002,510 c -1.0907,0 -2,0.9093 -2,2 l 0,11 c 0,1.0907 0.9093,2 2,2 l 9,0 c 1.0907,0 2,-0.9093 2,-2 l 0,-11 c 0,-1.0907 -0.9093,-2 -2,-2 0,4.33333 0,8.66667 0,13 l -9,0 c 0,-4.33333 0,-8.66667 0,-13 z" style="font-size:medium;font-style:normal;font-variant:normal;font-weight:400;font-stretch:normal;text-indent:0;text-align:start;text-decoration:none;line-height:normal;letter-spacing:normal;word-spacing:normal;text-transform:none;direction:ltr;block-progression:tb;writing-mode:lr-tb;text-anchor:start;color:#000;fill:#bebebe;fill-opacity:1;stroke:none;stroke-width:2;marker:none;visibility:visible;display:inline;overflow:visible;enable-background:new;font-family:Sans;-inkscape-font-specification:Sans"/><path id="path3601-2-3-3-9" d="M 168.40625,509 A 0.50005,0.50005 0 0 0 168,509.5 l 0,3 a 0.50005,0.50005 0 1 0 1,0 l 0,-3 a 0.50005,0.50005 0 0 0 -0.59375,-0.5 z" style="font-size:medium;font-style:normal;font-variant:normal;font-weight:400;font-stretch:normal;text-indent:0;text-align:start;text-decoration:none;line-height:normal;letter-spacing:normal;word-spacing:normal;text-transform:none;direction:ltr;block-progression:tb;writing-mode:lr-tb;text-anchor:start;baseline-shift:baseline;color:#000;fill:#bebebe;fill-opacity:1;stroke:none;stroke-width:1;marker:none;visibility:visible;display:inline;overflow:visible;enable-background:accumulate;font-family:Sans;-inkscape-font-specification:Sans"/><path id="path3601-2-3-3-9-3" d="M 170.40625,509 A 0.50005,0.50005 0 0 0 170,509.5 l 0,3 a 0.50005,0.50005 0 1 0 1,0 l 0,-3 a 0.50005,0.50005 0 0 0 -0.59375,-0.5 z" style="font-size:medium;font-style:normal;font-variant:normal;font-weight:400;font-stretch:normal;text-indent:0;text-align:start;text-decoration:none;line-height:normal;letter-spacing:normal;word-spacing:normal;text-transform:none;direction:ltr;block-progression:tb;writing-mode:lr-tb;text-anchor:start;baseline-shift:baseline;color:#000;fill:#bebebe;fill-opacity:1;stroke:none;stroke-width:1;marker:none;visibility:visible;display:inline;overflow:visible;enable-background:accumulate;font-family:Sans;-inkscape-font-specification:Sans"/><path id="path3601-2-3-3-9-3-3" d="M 172.40625,509 A 0.50005,0.50005 0 0 0 172,509.5 l 0,3 a 0.50005,0.50005 0 1 0 1,0 l 0,-3 a 0.50005,0.50005 0 0 0 -0.59375,-0.5 z" style="font-size:medium;font-style:normal;font-variant:normal;font-weight:400;font-stretch:normal;text-indent:0;text-align:start;text-decoration:none;line-height:normal;letter-spacing:normal;word-spacing:normal;text-transform:none;direction:ltr;block-progression:tb;writing-mode:lr-tb;text-anchor:start;baseline-shift:baseline;color:#000;fill:#bebebe;fill-opacity:1;stroke:none;stroke-width:1;marker:none;visibility:visible;display:inline;overflow:visible;enable-background:accumulate;font-family:Sans;-inkscape-font-specification:Sans"/><path id="path3601-2-3-3-9-3-3-7" d="M 174.40625,509 A 0.50005,0.50005 0 0 0 174,509.5 l 0,3 a 0.50005,0.50005 0 1 0 1,0 l 0,-3 a 0.50005,0.50005 0 0 0 -0.59375,-0.5 z" style="font-size:medium;font-style:normal;font-variant:normal;font-weight:400;font-stretch:normal;text-indent:0;text-align:start;text-decoration:none;line-height:normal;letter-spacing:normal;word-spacing:normal;text-transform:none;direction:ltr;block-progression:tb;writing-mode:lr-tb;text-anchor:start;baseline-shift:baseline;color:#000;fill:#bebebe;fill-opacity:1;stroke:none;stroke-width:1;marker:none;visibility:visible;display:inline;overflow:visible;enable-background:accumulate;font-family:Sans;-inkscape-font-specification:Sans"/></g></svg>